<mxfile host="app.diagrams.net" modified="2022-11-01T09:11:31.816Z" agent="5.0 (Macintosh; Intel Mac OS X 10_15_7) AppleWebKit/537.36 (KHTML, like Gecko) Chrome/106.0.0.0 Safari/537.36" etag="sRKzLVb0lDl5eCUna9Y7" version="20.5.1" type="github">
  <diagram id="6ZMjWEixyOKzrBm7bfrV" name="第 1 页">
    <mxGraphModel dx="2066" dy="1154" grid="1" gridSize="10" guides="1" tooltips="1" connect="1" arrows="1" fold="1" page="1" pageScale="1" pageWidth="827" pageHeight="1169" math="0" shadow="0">
      <root>
        <mxCell id="0" />
        <mxCell id="1" parent="0" />
        <mxCell id="9ieAf2uuQkh_xNTc6LYL-3" value="" style="edgeStyle=orthogonalEdgeStyle;rounded=0;orthogonalLoop=1;jettySize=auto;html=1;" edge="1" parent="1" source="9ieAf2uuQkh_xNTc6LYL-1" target="9ieAf2uuQkh_xNTc6LYL-2">
          <mxGeometry relative="1" as="geometry" />
        </mxCell>
        <mxCell id="9ieAf2uuQkh_xNTc6LYL-1" value="JSON Schema生成器" style="rounded=0;whiteSpace=wrap;html=1;" vertex="1" parent="1">
          <mxGeometry x="80" y="200" width="120" height="60" as="geometry" />
        </mxCell>
        <mxCell id="9ieAf2uuQkh_xNTc6LYL-2" value="组件属性json" style="whiteSpace=wrap;html=1;rounded=0;" vertex="1" parent="1">
          <mxGeometry x="270" y="200" width="120" height="60" as="geometry" />
        </mxCell>
        <mxCell id="9ieAf2uuQkh_xNTc6LYL-4" value="自定义组件" style="rounded=0;whiteSpace=wrap;html=1;" vertex="1" parent="1">
          <mxGeometry x="270" y="330" width="120" height="60" as="geometry" />
        </mxCell>
        <mxCell id="9ieAf2uuQkh_xNTc6LYL-9" value="" style="edgeStyle=orthogonalEdgeStyle;rounded=0;orthogonalLoop=1;jettySize=auto;html=1;" edge="1" parent="1" source="9ieAf2uuQkh_xNTc6LYL-5" target="9ieAf2uuQkh_xNTc6LYL-8">
          <mxGeometry relative="1" as="geometry" />
        </mxCell>
        <mxCell id="9ieAf2uuQkh_xNTc6LYL-11" value="" style="edgeStyle=orthogonalEdgeStyle;rounded=0;orthogonalLoop=1;jettySize=auto;html=1;" edge="1" parent="1" source="9ieAf2uuQkh_xNTc6LYL-5" target="9ieAf2uuQkh_xNTc6LYL-10">
          <mxGeometry relative="1" as="geometry">
            <Array as="points">
              <mxPoint x="610" y="170" />
            </Array>
          </mxGeometry>
        </mxCell>
        <mxCell id="9ieAf2uuQkh_xNTc6LYL-5" value="平台标准物料" style="rounded=0;whiteSpace=wrap;html=1;" vertex="1" parent="1">
          <mxGeometry x="490" y="260" width="120" height="60" as="geometry" />
        </mxCell>
        <mxCell id="9ieAf2uuQkh_xNTc6LYL-6" value="" style="endArrow=classic;html=1;rounded=0;exitX=1;exitY=0.5;exitDx=0;exitDy=0;entryX=0;entryY=0.75;entryDx=0;entryDy=0;" edge="1" parent="1" source="9ieAf2uuQkh_xNTc6LYL-4" target="9ieAf2uuQkh_xNTc6LYL-5">
          <mxGeometry width="50" height="50" relative="1" as="geometry">
            <mxPoint x="390" y="610" as="sourcePoint" />
            <mxPoint x="310" y="390" as="targetPoint" />
          </mxGeometry>
        </mxCell>
        <mxCell id="9ieAf2uuQkh_xNTc6LYL-7" value="" style="endArrow=classic;html=1;rounded=0;exitX=1;exitY=0.75;exitDx=0;exitDy=0;entryX=0;entryY=0.25;entryDx=0;entryDy=0;" edge="1" parent="1" source="9ieAf2uuQkh_xNTc6LYL-2" target="9ieAf2uuQkh_xNTc6LYL-5">
          <mxGeometry width="50" height="50" relative="1" as="geometry">
            <mxPoint x="270" y="330" as="sourcePoint" />
            <mxPoint x="320" y="400" as="targetPoint" />
          </mxGeometry>
        </mxCell>
        <mxCell id="9ieAf2uuQkh_xNTc6LYL-14" value="" style="edgeStyle=orthogonalEdgeStyle;rounded=0;orthogonalLoop=1;jettySize=auto;html=1;" edge="1" parent="1" source="9ieAf2uuQkh_xNTc6LYL-8" target="9ieAf2uuQkh_xNTc6LYL-13">
          <mxGeometry relative="1" as="geometry" />
        </mxCell>
        <mxCell id="9ieAf2uuQkh_xNTc6LYL-8" value="可视化面板" style="rounded=0;whiteSpace=wrap;html=1;" vertex="1" parent="1">
          <mxGeometry x="680" y="260" width="120" height="60" as="geometry" />
        </mxCell>
        <mxCell id="9ieAf2uuQkh_xNTc6LYL-10" value="属性面板解析器" style="whiteSpace=wrap;html=1;rounded=0;" vertex="1" parent="1">
          <mxGeometry x="680" y="140" width="120" height="60" as="geometry" />
        </mxCell>
        <mxCell id="9ieAf2uuQkh_xNTc6LYL-12" value="" style="endArrow=classic;html=1;rounded=0;exitX=0.5;exitY=1;exitDx=0;exitDy=0;" edge="1" parent="1" source="9ieAf2uuQkh_xNTc6LYL-10">
          <mxGeometry width="50" height="50" relative="1" as="geometry">
            <mxPoint x="390" y="610" as="sourcePoint" />
            <mxPoint x="740" y="260" as="targetPoint" />
          </mxGeometry>
        </mxCell>
        <mxCell id="9ieAf2uuQkh_xNTc6LYL-13" value="项目json" style="whiteSpace=wrap;html=1;rounded=0;" vertex="1" parent="1">
          <mxGeometry x="827" y="260" width="120" height="60" as="geometry" />
        </mxCell>
        <mxCell id="9ieAf2uuQkh_xNTc6LYL-19" value="" style="rounded=1;whiteSpace=wrap;html=1;opacity=30;dashed=1;fillColor=#fff2cc;strokeColor=#d6b656;backgroundOutline=0;fillStyle=auto;gradientColor=none;" vertex="1" parent="1">
          <mxGeometry x="60" y="110" width="900" height="340" as="geometry" />
        </mxCell>
        <mxCell id="9ieAf2uuQkh_xNTc6LYL-20" value="前端" style="text;html=1;strokeColor=none;fillColor=none;align=center;verticalAlign=middle;whiteSpace=wrap;rounded=0;dashed=1;opacity=30;fontSize=25;fontColor=#000000;" vertex="1" parent="1">
          <mxGeometry x="470" y="400" width="60" height="30" as="geometry" />
        </mxCell>
        <mxCell id="9ieAf2uuQkh_xNTc6LYL-23" value="" style="endArrow=classic;html=1;rounded=0;fontSize=25;fontColor=#000000;exitX=1;exitY=0.5;exitDx=0;exitDy=0;" edge="1" parent="1" source="9ieAf2uuQkh_xNTc6LYL-13">
          <mxGeometry width="50" height="50" relative="1" as="geometry">
            <mxPoint x="390" y="590" as="sourcePoint" />
            <mxPoint x="1060" y="290" as="targetPoint" />
          </mxGeometry>
        </mxCell>
        <mxCell id="9ieAf2uuQkh_xNTc6LYL-27" value="" style="edgeStyle=orthogonalEdgeStyle;rounded=0;orthogonalLoop=1;jettySize=auto;html=1;fontSize=12;fontColor=#000000;" edge="1" parent="1" source="9ieAf2uuQkh_xNTc6LYL-25" target="9ieAf2uuQkh_xNTc6LYL-26">
          <mxGeometry relative="1" as="geometry" />
        </mxCell>
        <mxCell id="9ieAf2uuQkh_xNTc6LYL-25" value="Koa" style="rounded=0;whiteSpace=wrap;html=1;fillStyle=auto;fontSize=12;fontColor=#000000;gradientColor=none;opacity=30;" vertex="1" parent="1">
          <mxGeometry x="1060" y="260" width="120" height="60" as="geometry" />
        </mxCell>
        <mxCell id="9ieAf2uuQkh_xNTc6LYL-29" value="" style="edgeStyle=orthogonalEdgeStyle;rounded=0;orthogonalLoop=1;jettySize=auto;html=1;fontSize=12;fontColor=#000000;exitX=1;exitY=0.5;exitDx=0;exitDy=0;" edge="1" parent="1" source="9ieAf2uuQkh_xNTc6LYL-25" target="9ieAf2uuQkh_xNTc6LYL-28">
          <mxGeometry relative="1" as="geometry" />
        </mxCell>
        <mxCell id="9ieAf2uuQkh_xNTc6LYL-26" value="&lt;p style=&quot;margin: 0pt 0pt 0.0001pt; text-align: justify; font-family: &amp;quot;Times New Roman&amp;quot;;&quot; class=&quot;MsoNormal&quot;&gt;&lt;span style=&quot;font-family: 宋体;&quot;&gt;&lt;font style=&quot;font-size: 12px;&quot;&gt;MongoDB&lt;/font&gt;&lt;/span&gt;&lt;/p&gt;" style="whiteSpace=wrap;html=1;fontColor=#000000;rounded=0;fillStyle=auto;gradientColor=none;opacity=30;" vertex="1" parent="1">
          <mxGeometry x="1060" y="110" width="120" height="60" as="geometry" />
        </mxCell>
        <mxCell id="9ieAf2uuQkh_xNTc6LYL-28" value="自定义搭建活动页面" style="whiteSpace=wrap;html=1;fontColor=#000000;rounded=0;fillStyle=auto;gradientColor=none;opacity=30;" vertex="1" parent="1">
          <mxGeometry x="1460" y="260" width="120" height="60" as="geometry" />
        </mxCell>
        <mxCell id="9ieAf2uuQkh_xNTc6LYL-30" value="" style="endArrow=classic;html=1;rounded=0;fontSize=12;fontColor=#000000;entryX=0.7;entryY=0;entryDx=0;entryDy=0;entryPerimeter=0;" edge="1" parent="1" target="9ieAf2uuQkh_xNTc6LYL-25">
          <mxGeometry width="50" height="50" relative="1" as="geometry">
            <mxPoint x="1144" y="170" as="sourcePoint" />
            <mxPoint x="810" y="540" as="targetPoint" />
          </mxGeometry>
        </mxCell>
        <mxCell id="9ieAf2uuQkh_xNTc6LYL-31" value="存储" style="text;strokeColor=none;fillColor=none;align=left;verticalAlign=middle;spacingLeft=4;spacingRight=4;overflow=hidden;points=[[0,0.5],[1,0.5]];portConstraint=eastwest;rotatable=0;fillStyle=auto;fontSize=12;fontColor=#000000;opacity=30;" vertex="1" parent="1">
          <mxGeometry x="1080" y="200" width="40" height="20" as="geometry" />
        </mxCell>
        <mxCell id="9ieAf2uuQkh_xNTc6LYL-32" value="获取" style="text;strokeColor=none;fillColor=none;align=left;verticalAlign=middle;spacingLeft=4;spacingRight=4;overflow=hidden;points=[[0,0.5],[1,0.5]];portConstraint=eastwest;rotatable=0;fillStyle=auto;fontSize=12;fontColor=#000000;opacity=30;" vertex="1" parent="1">
          <mxGeometry x="1150" y="200" width="40" height="20" as="geometry" />
        </mxCell>
        <mxCell id="9ieAf2uuQkh_xNTc6LYL-33" value="h5 项目模版" style="rounded=0;whiteSpace=wrap;html=1;fillStyle=auto;fontSize=12;fontColor=#000000;gradientColor=none;opacity=30;" vertex="1" parent="1">
          <mxGeometry x="1290" y="110" width="120" height="60" as="geometry" />
        </mxCell>
        <mxCell id="9ieAf2uuQkh_xNTc6LYL-34" value="" style="endArrow=classic;html=1;rounded=0;fontSize=12;fontColor=#000000;exitX=0.5;exitY=1;exitDx=0;exitDy=0;entryX=0;entryY=0.25;entryDx=0;entryDy=0;" edge="1" parent="1" source="9ieAf2uuQkh_xNTc6LYL-33" target="9ieAf2uuQkh_xNTc6LYL-28">
          <mxGeometry width="50" height="50" relative="1" as="geometry">
            <mxPoint x="760" y="590" as="sourcePoint" />
            <mxPoint x="810" y="540" as="targetPoint" />
          </mxGeometry>
        </mxCell>
        <mxCell id="9ieAf2uuQkh_xNTc6LYL-35" value="" style="rounded=1;whiteSpace=wrap;html=1;opacity=30;dashed=1;fillColor=#fff2cc;strokeColor=#d6b656;backgroundOutline=0;fillStyle=auto;gradientColor=none;" vertex="1" parent="1">
          <mxGeometry x="990" y="100" width="260" height="350" as="geometry" />
        </mxCell>
        <mxCell id="9ieAf2uuQkh_xNTc6LYL-36" value="" style="rounded=1;whiteSpace=wrap;html=1;opacity=30;dashed=1;fillColor=#fff2cc;strokeColor=#d6b656;backgroundOutline=0;fillStyle=auto;gradientColor=none;" vertex="1" parent="1">
          <mxGeometry x="1270" y="90" width="320" height="360" as="geometry" />
        </mxCell>
        <mxCell id="9ieAf2uuQkh_xNTc6LYL-37" value="后端" style="text;html=1;strokeColor=none;fillColor=none;align=center;verticalAlign=middle;whiteSpace=wrap;rounded=0;dashed=1;opacity=30;fontSize=25;fontColor=#000000;" vertex="1" parent="1">
          <mxGeometry x="1090" y="400" width="60" height="30" as="geometry" />
        </mxCell>
        <mxCell id="9ieAf2uuQkh_xNTc6LYL-38" value="展示页" style="text;html=1;strokeColor=none;fillColor=none;align=center;verticalAlign=middle;whiteSpace=wrap;rounded=0;dashed=1;opacity=30;fontSize=25;fontColor=#000000;" vertex="1" parent="1">
          <mxGeometry x="1390" y="400" width="80" height="30" as="geometry" />
        </mxCell>
      </root>
    </mxGraphModel>
  </diagram>
</mxfile>
